<svg xmlns="http://www.w3.org/2000/svg">
    <symbol id="fox" viewBox="0 0 512 512">
       <path d="M481.54 356.126l-14.622 1.35c-27.534 2.56-87.714 15.442-97.965 38.886-2.27 5.191-4.571 11.022-7.001 17.203-8.081 20.543-17.243 43.827-32.635 62.97-11.192 13.922-24.394 23.784-39.466 29.505-10.412 3.97-21.704 5.96-33.846 5.96h-.01c-12.142 0-23.444-1.99-33.855-5.961-15.072-5.721-28.274-15.582-39.466-29.505-15.392-19.143-24.554-42.427-32.635-62.96-2.43-6.181-4.731-12.022-7.001-17.213-10.252-23.444-70.431-36.326-97.975-38.886l-14.602-1.36 1.03-14.642c1.16-16.423 3.13-32.265 5.921-47.497 6.951-38.116 18.943-72.401 35.846-102.356.97-1.71 1.95-3.421 2.95-5.101 0 0 0-.01.01-.01C13.517 128.87 40.601 23.744 41.842 19.123L46.932 0l142.892 84.443-.49.82h.01a184.431 184.431 0 0 1 66.65-12.452h.01c22.614 0 45.227 4.151 66.64 12.452h.01l-.49-.82L465.058 0l5.091 19.123c1.24 4.621 28.324 109.747-34.375 167.386.01 0 .01.01.01.01 1 1.68 1.98 3.391 2.95 5.101 16.783 29.745 28.735 63.76 35.696 101.556 2.87 15.482 4.891 31.585 6.071 48.298l1.039 14.652z" fill="#ff7a53"/> <path d="M481.54 356.126l-14.622 1.35c-27.534 2.56-87.714 15.442-97.965 38.886-2.27 5.191-4.571 11.022-7.001 17.203-8.081 20.543-17.243 43.827-32.635 62.97-11.192 13.922-24.394 23.784-39.466 29.505-10.412 3.97-21.704 5.96-33.846 5.96V72.811c22.614 0 45.227 4.151 66.64 12.452h.01l-.49-.82L465.058 0l5.091 19.123c1.24 4.621 28.324 109.747-34.375 167.386.01 0 .01.01.01.01 1 1.68 1.98 3.391 2.95 5.101 16.783 29.745 28.735 63.76 35.696 101.556 2.87 15.482 4.891 31.585 6.071 48.298l1.039 14.652z" fill="#ff4f19"/> <path fill="#3a3a41" d="M315.111 302.964l-21.258-21.174 34.606-34.743 21.258 21.174z"/> <path fill="#57555c" d="M196.388 302.958l-34.605-34.743 21.257-21.173 34.606 34.742z"/> <path d="M481.54 356.126l-14.622 1.35c-27.534 2.56-87.714 15.442-97.965 38.886-2.27 5.191-4.571 11.022-7.001 17.203-8.081 20.543-17.243 43.827-32.635 62.97C310.393 500.068 285.74 512 256.005 512h-.01c-29.735 0-54.398-11.932-73.321-35.466-15.392-19.143-24.554-42.427-32.635-62.96-2.43-6.181-4.731-12.022-7.001-17.213-10.252-23.444-70.431-36.326-97.975-38.886l-14.602-1.36 1.03-14.642c1.16-16.423 3.13-32.265 5.921-47.497 4.241.58 9.231 1.35 14.792 2.38 4.531.84 9.451 1.84 14.662 3.05 55.999 13.002 145.603 49.378 155.274 149.643h67.711c9.982-103.496 101.666-138.922 155.054-150.834a308.097 308.097 0 0 1 14.692-2.89c5.921-1.02 10.962-1.7 14.832-2.15 2.87 15.482 4.891 31.585 6.071 48.298l1.04 14.653z" fill="#ffd8a6"/> <path d="M481.54 356.126l-14.622 1.35c-27.534 2.56-87.714 15.442-97.965 38.886-2.27 5.191-4.571 11.022-7.001 17.203-8.081 20.543-17.243 43.827-32.635 62.97C310.393 500.068 285.74 512 256.005 512v-62.95h33.845c9.982-103.496 101.666-138.922 155.054-150.834a308.097 308.097 0 0 1 14.692-2.89c5.921-1.02 10.962-1.7 14.832-2.15 2.87 15.482 4.891 31.585 6.071 48.298l1.041 14.652z" fill="#ffc173"/> <path d="M289.85 447.37v58.669C279.439 510.01 268.147 512 256.005 512h-.01c-12.142 0-23.444-1.99-33.855-5.961V447.37h67.71z" fill="#57555c"/> <path d="M289.85 447.37v58.669C279.439 510.01 268.147 512 256.005 512v-64.63h33.845z" fill="#3a3a41"/> 
    </symbol>
    <symbol id="sun" viewBox="0 0 512 512">
       <path fill="#ffd82d" d="M476.862 256L512 324.595l-64.733 41.831-3.862 76.979-76.979 3.862L324.595 512 256 476.862 187.405 512l-41.831-64.733-76.979-3.862-3.862-76.979L0 324.595 35.138 256 0 187.405l64.733-41.831 3.862-76.979 76.979-3.862L187.405 0 256 35.138 324.595 0l41.831 64.733 76.979 3.862 3.862 76.979L512 187.405z"/> <path fill="#fbbd00" d="M476.862 256L512 324.595l-64.733 41.831-3.862 76.979-76.979 3.862L324.595 512 256 476.862V35.138L324.595 0l41.831 64.733 76.979 3.862 3.862 76.979L512 187.405z"/> <circle cx="256" cy="256" r="152.387" fill="#ffa720"/> <path d="M408.387 256c0 84.163-68.225 152.387-152.387 152.387V103.613c84.163 0 152.387 68.224 152.387 152.387z" fill="#ff8600"/> 
    </symbol></svg>
<svg xmlns="http://www.w3.org/2000/svg">
    <symbol id="arrow" viewBox="0 0 150 118">
       <path d="M87 1.3c-3.4 1.7-5.5 5.7-4.6 9 .3 1.5 8.1 10 19.4 21.1l18.7 18.5L64 50c-43.1 0-57.1.3-59 1.3-5.5 2.8-6.4 9.4-1.8 13.7 2.1 2 3.3 2 59.7 2h57.5l-19.2 19.3c-21.2 21.4-21.8 22.3-16.3 27.8 2 2 3.9 2.9 6.1 2.9 2.8 0 6.3-3 29.8-26.2 14.7-14.4 27.2-27.1 27.9-28.2 3-5.1 2.3-6-21.9-30.4C94.7 0 92.6-1.6 87 1.3z"/> 
    </symbol>
    <symbol id="select-item" viewBox="0 0 150 111">
       <path d="M95 40.5L55.5 80 36 60.5C25.3 49.8 16 41 15.5 41c-.6 0-4.4 3.4-8.5 7.5L-.5 56l27.8 27.8L55 111.5 102.5 64C128.6 37.9 150 16 150 15.5 150 14.2 136.8 1 135.5 1c-.6 0-18.8 17.8-40.5 39.5z"/> 
    </symbol></svg>